<svg width="50" height="50" viewBox="0 0 50 50" fill="none" xmlns="http://www.w3.org/2000/svg">
<g clip-path="url(#clip0_351_46)">
<path d="M16.5372 10H28.0626C28.0626 12.0508 28.0626 14.1074 28.0626 16.1582C28.0567 16.9316 28.42 17.6934 29.0235 18.1855C29.504 18.5898 30.1309 18.8008 30.7579 18.7949C32.7911 18.7949 34.8184 18.7949 36.8516 18.7949C36.8516 24.9883 36.8516 31.1816 36.8516 37.3691C36.8575 38.2715 36.3594 39.1562 35.586 39.6191C35.2344 39.8418 34.8301 39.9531 34.42 40.0059H16.4083C15.9512 39.9355 15.5001 39.8008 15.1251 39.5254C14.4278 39.0391 13.9942 38.207 14.0001 37.3633C14.0001 29.1602 14.0001 20.957 14.0001 12.7539C14.0001 12.4375 14.0294 12.1211 14.129 11.8223C14.4512 10.791 15.459 10.0352 16.5372 10ZM19.9883 22.3809C19.543 22.457 19.209 22.9199 19.2852 23.3652C19.3379 23.7871 19.7305 24.127 20.1583 24.1211C23.6504 24.1211 27.1485 24.1211 30.6465 24.1211C30.9219 24.1328 31.2032 24.0215 31.379 23.8047C31.5899 23.5586 31.6485 23.1953 31.5137 22.9023C31.3848 22.5859 31.0508 22.3633 30.711 22.3633C27.295 22.3633 23.8731 22.3633 20.4571 22.3633C20.293 22.3633 20.1407 22.3516 19.9883 22.3809ZM19.9883 25.8965C19.4434 25.9844 19.1036 26.6406 19.3614 27.1328C19.5079 27.4551 19.8594 27.6543 20.211 27.6367C23.709 27.6367 27.2012 27.6367 30.6993 27.6367C31.0626 27.6367 31.4141 27.3965 31.5254 27.0508C31.6837 26.6465 31.4727 26.1426 31.0743 25.9668C30.8516 25.8496 30.5938 25.8848 30.3536 25.8789C27.0723 25.8789 23.7911 25.8789 20.5098 25.8789C20.334 25.8789 20.1583 25.8672 19.9883 25.8965ZM19.9883 29.4121C19.543 29.4883 19.209 29.9512 19.2852 30.3965C19.3379 30.8184 19.7305 31.1582 20.1583 31.1523C23.5567 31.1523 26.9551 31.1523 30.3536 31.1523C30.6231 31.1523 30.9219 31.1816 31.1563 31.0234C31.5782 30.7832 31.7129 30.1738 31.4258 29.7813C31.2559 29.5234 30.9454 29.3828 30.6407 29.3945C27.2598 29.3945 23.8848 29.3945 20.504 29.3945C20.334 29.3945 20.1583 29.3828 19.9883 29.4121ZM19.9883 32.9277C19.543 33.0039 19.209 33.4668 19.2852 33.918C19.3379 34.3398 19.7305 34.6797 20.1524 34.6738C22.4786 34.6738 24.7989 34.6738 27.1251 34.6738C27.4122 34.6855 27.711 34.5566 27.8809 34.3223C28.086 34.0586 28.1153 33.6719 27.9571 33.3789C27.8106 33.0977 27.5001 32.9102 27.1837 32.916C24.9395 32.916 22.6895 32.916 20.4454 32.916C20.293 32.9102 20.1407 32.9043 19.9883 32.9277Z" fill="#F6F6F7"/>
<path d="M29.8204 10.5215C31.9942 12.6895 34.1622 14.8633 36.336 17.0312C34.4552 17.0312 32.5802 17.0312 30.6993 17.0312C30.336 17.0312 29.9903 16.791 29.8731 16.4453C29.8087 16.2754 29.8204 16.0937 29.8204 15.918C29.8204 14.1191 29.8204 12.3203 29.8204 10.5215Z" fill="#41E88D"/>
</g>
<defs>
<clipPath id="clip0_351_46">
<rect width="22.8516" height="30" fill="white" transform="translate(14 10)"/>
</clipPath>
</defs>
</svg>
