<svg width="50" height="50" viewBox="0 0 50 50" fill="none" xmlns="http://www.w3.org/2000/svg">
<path d="M18.6292 15.4122C19.2681 15.4272 19.8469 14.8559 19.8319 14.217C19.8319 13.1872 19.8394 12.1498 19.8319 11.12C19.8018 10.436 19.1027 9.87974 18.4262 10.015C17.87 10.0977 17.419 10.6239 17.434 11.1952C17.434 12.2025 17.434 13.2097 17.434 14.2095C17.4114 14.8559 17.9902 15.4272 18.6292 15.4122Z" fill="#F6F6F7"/>
<path d="M30.6563 15.4122C31.2952 15.4272 31.8665 14.8559 31.859 14.217C31.859 13.1872 31.8665 12.1498 31.859 11.12C31.8364 10.436 31.1298 9.87974 30.4533 10.015C29.8971 10.1052 29.4461 10.6314 29.4611 11.1952C29.4611 12.2025 29.4611 13.2097 29.4611 14.2095C29.4385 14.8559 30.0173 15.4272 30.6563 15.4122Z" fill="#F6F6F7"/>
<path d="M40.2779 20.8243H9.00757C9.00757 24.7858 9.00757 29.0178 9.00757 33.0093V36.5873C9.00757 38.4665 10.5335 39.9925 12.4127 39.9925H15.8179C22.1396 39.9925 28.4689 39.9925 34.7906 39.9925C34.8507 39.9925 34.9109 39.9925 34.9785 39.9925H36.8803C38.7595 39.9925 40.2854 38.4665 40.2854 36.5873V33.0093H40.2779C40.2779 29.0178 40.2779 24.7933 40.2779 20.8243ZM30.2203 29.0178C30.1677 29.4462 29.8445 29.7619 29.4987 29.9799L27.7322 31.2503C27.9727 31.9945 28.2133 32.7311 28.4538 33.4753C28.6042 33.8662 28.5966 34.3322 28.3411 34.678C27.9953 35.2042 27.2135 35.3545 26.7024 35.0012C26.0108 34.5126 25.3343 34.009 24.6427 33.5129C24.0113 33.9714 23.3874 34.4224 22.756 34.881C22.538 35.0463 22.29 35.1816 22.0118 35.1967C21.5533 35.2343 21.0948 34.9862 20.8693 34.5878C20.6964 34.2871 20.6738 33.9188 20.7866 33.5956C21.0346 32.8213 21.2902 32.0471 21.5383 31.2728C20.8693 30.7767 20.1927 30.2956 19.5162 29.7995C19.0877 29.4913 18.9149 28.8825 19.1178 28.4014C19.2832 27.9579 19.7342 27.6497 20.2078 27.6422C21.0421 27.6347 21.884 27.6422 22.7259 27.6422C22.989 26.8454 23.2371 26.0486 23.5002 25.2593C23.6655 24.7632 24.1917 24.4174 24.7104 24.4625C25.1764 24.4851 25.6124 24.8158 25.7628 25.2593C26.0259 26.0486 26.2814 26.8454 26.537 27.6347C26.537 27.6422 26.5445 27.6422 26.5445 27.6422C27.3939 27.6497 28.2509 27.6347 29.1003 27.6497C29.7993 27.6572 30.3481 28.3488 30.2203 29.0178Z" fill="#F6F6F7"/>
<path d="M34.9409 12.4129C34.317 12.3904 33.6855 12.4279 33.0616 12.4129C33.0541 13.1045 33.0842 13.8035 33.0466 14.4951C32.9339 15.6753 31.8439 16.6449 30.6637 16.6224C29.4836 16.6525 28.3861 15.6753 28.2734 14.5026C28.2358 13.8111 28.2658 13.112 28.2583 12.4204H21.0421C21.0346 13.112 21.0646 13.8111 21.0271 14.5026C20.9143 15.6828 19.8244 16.6525 18.6442 16.6299C17.464 16.66 16.3666 15.6903 16.2538 14.5101C16.2162 13.8186 16.2463 13.1195 16.2388 12.4204C15.6149 12.4204 14.9835 12.4204 14.3596 12.4204H12.4803C10.5485 12.4129 9 13.9614 9 15.8707V18.1859C9 18.667 9.02255 19.1481 9.00752 19.6216H40.2779C40.2628 19.1481 40.2854 18.667 40.2854 18.1859V15.8707C40.2854 13.9614 38.7369 12.4054 36.8201 12.4054H34.9409V12.4129Z" fill="#32CAFD"/>
</svg>
