<svg width="50" height="50" viewBox="0 0 50 50" fill="none" xmlns="http://www.w3.org/2000/svg">
<g clip-path="url(#clip0_351_46)">
<path d="M11.7569 10.3038C12.2903 10.0445 12.8979 9.99259 13.4832 10C16.9878 10 20.4998 10 24.0043 10C24.2118 9.98519 24.4118 10.0667 24.5378 10.2371C25.4269 11.2892 26.3086 12.3487 27.1977 13.4008C31.5173 13.4008 35.8295 13.4008 40.1491 13.4008C40.5936 13.4008 41.0382 13.386 41.4753 13.4675C42.1199 13.6009 42.7127 13.9417 43.1498 14.4381C43.6462 14.979 43.8981 15.7051 43.9278 16.4386V33.065C43.8907 33.6429 43.7203 34.2134 43.3869 34.6876C42.9053 35.4137 42.0977 35.8879 41.2456 36.0064C41.2456 30.983 41.2456 25.9521 41.2456 20.9286C41.253 20.3285 41.2382 19.7209 41.0456 19.1504C40.6159 17.7056 39.3859 16.5424 37.9263 16.1867C37.2965 16.0163 36.6445 16.0534 35.9999 16.0534C31.9322 16.0534 27.8571 16.0534 23.7895 16.0534C23.1301 15.268 22.4706 14.49 21.8186 13.7046C21.5741 13.4083 21.3296 13.0897 20.9888 12.897C20.6702 12.7044 20.2923 12.6525 19.9219 12.6525C16.6247 12.6525 13.3276 12.6525 10.0305 12.6525C10.1787 11.6523 10.8307 10.7335 11.7569 10.3038Z" fill="#DF2DB1"/>
<path d="M7.73376 14.2826C8.20795 14.0455 8.74142 13.964 9.26747 13.964C12.8461 13.964 16.4322 13.964 20.0109 13.964C20.2035 13.9492 20.3961 14.0381 20.5147 14.1937C21.4112 15.2532 22.2929 16.3127 23.1894 17.3648C27.7387 17.3648 32.2806 17.3574 36.8298 17.3723C37.9931 17.3574 39.1267 18.0465 39.6231 19.0986C39.9195 19.6839 39.9565 20.3508 39.9417 20.9954C39.9417 26.2337 39.9417 31.4646 39.9417 36.703C39.9343 37.1327 39.8973 37.5772 39.7417 37.9848C39.4379 38.8368 38.7266 39.5407 37.8597 39.8297C37.3114 40.0223 36.7261 40.0075 36.1556 40.0075C27.3386 40.0075 18.5216 40.0075 9.70462 40.0075C9.09706 40.0149 8.46728 40.0149 7.89676 39.7704C6.79279 39.3332 6.03705 38.207 6 37.029V16.987C6.02964 15.8534 6.70388 14.7642 7.73376 14.2826Z" fill="#F6F6F7"/>
</g>
<defs>
<clipPath id="clip0_351_46">
<rect width="37.9353" height="30" fill="white" transform="translate(6 10)"/>
</clipPath>
</defs>
</svg>
