<svg width="55" height="50" viewBox="0 0 55 50" fill="none" xmlns="http://www.w3.org/2000/svg">
<rect width="55" height="50" rx="9" fill="#222222"/>
<path d="M41.1874 22.5301V27.8264C41.1874 30.173 41.1858 31.8331 41.078 33.1301C40.9718 34.4071 40.7706 35.1852 40.4525 35.7952C39.8336 36.9839 38.8622 37.9534 37.6703 38.5708C37.0587 38.8881 36.2787 39.0888 34.9987 39.1948C33.6986 39.3023 32.0345 39.3039 29.6824 39.3039H24.7839C22.4317 39.3039 20.7677 39.3023 19.4678 39.1948C18.1874 39.0888 17.4077 38.8881 16.796 38.5708C15.6043 37.9534 14.6327 36.9839 14.0136 35.7952C13.6959 35.1852 13.4946 34.4071 13.3883 33.1301C13.2804 31.8331 13.279 30.173 13.279 27.8264V22.9399C13.279 20.5933 13.2804 18.9334 13.3883 17.6366C13.4946 16.3593 13.6959 15.5815 14.0136 14.9712C14.6327 13.7824 15.6043 12.8131 16.796 12.1956C17.4077 11.8786 18.1874 11.6778 19.4678 11.5718C20.7677 11.4641 22.4316 11.4628 24.7839 11.4628H30.0931C30.1405 10.3162 30.37 9.21649 30.7532 8.19165H24.711C22.4481 8.19161 20.648 8.19161 19.1964 8.31187C17.7097 8.43502 16.4422 8.69279 15.2845 9.29275C13.4939 10.2206 12.0339 11.6771 11.1038 13.4634C10.5024 14.6183 10.244 15.8827 10.1205 17.3659C10 18.8139 10 20.6097 10 22.8671V27.8992C10 30.1567 10 31.9525 10.1205 33.4008C10.244 34.8838 10.5024 36.1481 11.1038 37.3032C12.0339 39.0893 13.4939 40.5457 15.2845 41.4739C16.4422 42.0737 17.7097 42.3313 19.1964 42.4548C20.648 42.575 22.448 42.575 24.7109 42.575H29.7553C32.0181 42.575 33.8183 42.575 35.27 42.4548C36.7567 42.3313 38.024 42.0737 39.1819 41.4739C40.9722 40.5457 42.4322 39.0893 43.3626 37.3032C43.9639 36.1481 44.2221 34.8838 44.3459 33.4008C44.4664 31.9525 44.4664 30.1567 44.4664 27.8996V21.8716C43.4389 22.254 42.3367 22.4828 41.1874 22.5301Z" fill="white"/>
<path d="M32 13.36C32 9.29519 35.3032 6 39.3778 6C43.4524 6 46.7556 9.29519 46.7556 13.36C46.7556 17.4248 43.4524 20.72 39.3778 20.72C35.3032 20.72 32 17.4248 32 13.36Z" fill="#7214FF"/>
</svg>
