<svg width="50" height="50" viewBox="0 0 50 50" fill="none" xmlns="http://www.w3.org/2000/svg">
<path d="M6.0835 10.3467C6.59834 10.1292 7.14537 9.99228 7.70043 10.0003C18.9627 10.0003 30.2249 10.0003 41.4872 10.0003C42.0422 9.99228 42.5973 10.1292 43.1041 10.3548C40.3609 13.1258 37.5776 15.8647 34.8183 18.6277C32.4774 20.9557 30.1364 23.2918 27.8035 25.6198C27.5139 25.8937 27.2485 26.1998 26.9347 26.4495C26.0096 27.2711 24.6421 27.537 23.4676 27.1422C22.8803 26.965 22.3735 26.6025 21.9391 26.1836C16.7665 21.0282 11.594 15.8727 6.41332 10.7173C6.3007 10.5964 6.18003 10.4837 6.0835 10.3467Z" fill="#B756FE"/>
<path d="M4.35396 12.0786C8.52903 16.211 12.688 20.3596 16.8551 24.5001C12.688 28.6405 8.52903 32.7891 4.35396 36.9215C4.16089 36.4784 4.03218 36.0032 4 35.5118V13.4883C4.03218 12.9969 4.16089 12.5217 4.35396 12.0786Z" fill="#F6F6F7"/>
<path d="M32.3325 24.5001C36.4996 20.3596 40.6505 16.203 44.8336 12.0786C45.0267 12.5217 45.1634 12.9969 45.1876 13.4883V35.5198C45.1554 36.0032 45.0267 36.4865 44.8336 36.9295C40.6585 32.7891 36.4996 28.6405 32.3325 24.5001Z" fill="#F6F6F7"/>
<path d="M8.96341 35.7534C12.1651 32.5715 15.3588 29.3896 18.5605 26.2078C19.1799 26.82 19.7832 27.4402 20.4026 28.0444C21.3036 28.9224 22.4862 29.5024 23.725 29.6796C25.4867 29.9455 27.3531 29.3816 28.6563 28.1652C29.332 27.5289 29.9675 26.8603 30.6271 26.2078C33.1933 28.7613 35.7595 31.3149 38.3257 33.8685C39.9185 35.4634 41.5354 37.0342 43.1122 38.6453C42.6054 38.8709 42.0503 39.0078 41.4952 38.9997C30.233 38.9997 18.9707 38.9997 7.70848 38.9997C7.14536 39.0078 6.59834 38.8709 6.0835 38.6453C7.01665 37.6626 8.00612 36.7201 8.96341 35.7534Z" fill="#F6F6F7"/>
</svg>
